<?xml version="1.0" encoding="utf-8"?>
<!-- Generator: Adobe Illustrator 25.3.1, SVG Export Plug-In . SVG Version: 6.00 Build 0)  -->
<svg version="1.1" id="Layer_1" xmlns="http://www.w3.org/2000/svg" xmlns:xlink="http://www.w3.org/1999/xlink" x="0px" y="0px"
	 viewBox="0 0 512 512" style="enable-background:new 0 0 512 512;" xml:space="preserve">
<style type="text/css">
	.st0{fill:#0000FF;}
</style>
<path class="st0" d="M322.9,266l90.9-90.9c18.7-18.7,18.7-49.1,0-67.9l0,0c-18.7-18.7-49.1-18.7-67.9,0L255,198.1L164.9,108
	c-18.7-18.7-49.1-18.7-67.9,0l0,0c-18.7,18.7-18.7,49.1,0,67.9l90.1,90.1L97,356.1c-18.7,18.7-18.7,49.1,0,67.9l0,0
	c18.7,18.7,49.1,18.7,67.9,0l90.1-90.1l90.9,90.9c18.7,18.7,49.1,18.7,67.9,0l0,0c18.7-18.7,18.7-49.1,0-67.9L322.9,266z"/>
</svg>
