<svg xmlns="http://www.w3.org/2000/svg" viewBox="0 0 90.82 15.46"><defs><style>.cls-1{fill:#1d1d1b;}.cls-2{fill:blue;}</style></defs><g id="Layer_2" data-name="Layer 2"><g id="Layer_1-2" data-name="Layer 1"><path class="cls-1" d="M3.78,15.46a4.45,4.45,0,0,1-2-.43A3.15,3.15,0,0,1,.46,13.81,3.57,3.57,0,0,1,0,12a3.34,3.34,0,0,1,.49-1.83,3.31,3.31,0,0,1,1.36-1.2A4.24,4.24,0,0,1,3.8,8.5a4,4,0,0,1,2.43.69A3.42,3.42,0,0,1,7.5,11.13L6.22,11V8.48A1.53,1.53,0,0,0,5.8,7.43,1.81,1.81,0,0,0,4.43,7a7,7,0,0,0-1.3.14,6,6,0,0,0-1.49.51l-.82-2a9.34,9.34,0,0,1,1.92-.7,8.91,8.91,0,0,1,2.05-.25,4.78,4.78,0,0,1,2.33.51A3.22,3.22,0,0,1,8.5,6.55a4.27,4.27,0,0,1,.47,2v6.59H6.78L6.2,13.21l1.3-.38a3.48,3.48,0,0,1-1.32,1.93A3.9,3.9,0,0,1,3.78,15.46Zm.76-2.1A1.84,1.84,0,0,0,5.75,13a1.33,1.33,0,0,0,0-2,1.9,1.9,0,0,0-1.21-.37A1.93,1.93,0,0,0,3.32,11a1.35,1.35,0,0,0,0,2A1.87,1.87,0,0,0,4.54,13.36Z"/><path class="cls-1" d="M13.25,4.89l.69,2.84v7.43H11.19V4.89Zm.13,4.25-.51-.24V6.8l.19-.23a4.42,4.42,0,0,1,.71-.82A4.6,4.6,0,0,1,14.86,5a2.69,2.69,0,0,1,1.29-.33,5.51,5.51,0,0,1,.61,0,1,1,0,0,1,.42.15v2.5h-.67a4.17,4.17,0,0,0-2.1.43A2.29,2.29,0,0,0,13.38,9.14Z"/><path class="cls-1" d="M18.75,15.16V4.89h2.06l.57,2-.88,0a7.39,7.39,0,0,1,1.19-1.12A5.56,5.56,0,0,1,23.11,5a4.59,4.59,0,0,1,1.61-.29A3.38,3.38,0,0,1,26.4,5a2.23,2.23,0,0,1,.93,1,4.68,4.68,0,0,1,.42,1.37A10.25,10.25,0,0,1,27.87,9v6.21H25.12V8.93a1.6,1.6,0,0,0-.38-1.26,1.38,1.38,0,0,0-.91-.32,2.74,2.74,0,0,0-1.47.45A4.07,4.07,0,0,0,21.17,9l-.36-1.43h.69v7.64Zm12.71,0V8.93a1.64,1.64,0,0,0-.37-1.26,1.31,1.31,0,0,0-.89-.32,2.69,2.69,0,0,0-1.47.45A4,4,0,0,0,27.53,9l-.69-2.12A7.06,7.06,0,0,1,28,5.71,5.79,5.79,0,0,1,29.47,5a4.59,4.59,0,0,1,1.61-.29A3.32,3.32,0,0,1,32.74,5a2.31,2.31,0,0,1,.94,1,4.15,4.15,0,0,1,.43,1.37A10.25,10.25,0,0,1,34.23,9v6.21Z"/><path class="cls-1" d="M36.2,1.7A1.73,1.73,0,0,1,36.65.47,1.64,1.64,0,0,1,37.86,0a1.6,1.6,0,0,1,1.21.47,1.73,1.73,0,0,1,.45,1.23,1.62,1.62,0,0,1-.45,1.18,1.6,1.6,0,0,1-1.21.46,1.63,1.63,0,0,1-1.21-.46A1.62,1.62,0,0,1,36.2,1.7Zm3,13.46H36.5V4.89h2.75Z"/><path class="cls-1" d="M47.82,4.66A3.45,3.45,0,0,1,49.51,5a2.36,2.36,0,0,1,1,1,3.93,3.93,0,0,1,.43,1.37A11.67,11.67,0,0,1,51,9v6.21H48.26V8.93a1.64,1.64,0,0,0-.37-1.26A1.4,1.4,0,0,0,47,7.35a3.21,3.21,0,0,0-1.08.2,3.5,3.5,0,0,0-1,.57,3.74,3.74,0,0,0-.81.83L43.7,7.52h.69v7.64H41.64V4.89H43.7l.57,2-.88,0a6.62,6.62,0,0,1,1.24-1.12A6.12,6.12,0,0,1,46.14,5,4.94,4.94,0,0,1,47.82,4.66Z"/><path class="cls-2" d="M55,8.55a1.8,1.8,0,0,1-1-.28,2.07,2.07,0,0,1-.72-.72,1.8,1.8,0,0,1-.28-1,1.75,1.75,0,0,1,.28-1A2.07,2.07,0,0,1,54,4.87a1.95,1.95,0,0,1,2,0,2.07,2.07,0,0,1,.72.72,1.83,1.83,0,0,1,.27,1,1.88,1.88,0,0,1-.27,1,2.07,2.07,0,0,1-.72.72A1.8,1.8,0,0,1,55,8.55Zm0,6.78a2,2,0,0,1-1-.26,2.07,2.07,0,0,1-.72-.72,1.77,1.77,0,0,1-.28-1,1.81,1.81,0,0,1,.28-1,2,2,0,0,1,.72-.7,1.95,1.95,0,0,1,2,0,2,2,0,0,1,.72.7,1.88,1.88,0,0,1,.27,1,1.84,1.84,0,0,1-.27,1,2.07,2.07,0,0,1-.72.72A2,2,0,0,1,55,15.33Z"/><path class="cls-1" d="M61.61,15.27a2.73,2.73,0,0,1-1.27-.3,2.18,2.18,0,0,1-.92-.91,3.28,3.28,0,0,1-.35-1.61V.86H61.8V11.49c0,.49.1.81.3.95a1.11,1.11,0,0,0,.71.22v2.46a2.48,2.48,0,0,1-.56.12C62,15.26,61.82,15.27,61.61,15.27Z"/><path class="cls-1" d="M64.34,1.7A1.73,1.73,0,0,1,64.79.47a1.79,1.79,0,0,1,2.42,0,1.73,1.73,0,0,1,.45,1.23,1.62,1.62,0,0,1-.45,1.18,1.82,1.82,0,0,1-2.42,0A1.62,1.62,0,0,1,64.34,1.7Zm3,13.46H64.64V4.89h2.75Z"/><path class="cls-1" d="M76,4.66A3.45,3.45,0,0,1,77.65,5a2.42,2.42,0,0,1,1,1A3.93,3.93,0,0,1,79,7.36,11.67,11.67,0,0,1,79.15,9v6.21H76.4V8.93A1.64,1.64,0,0,0,76,7.67a1.41,1.41,0,0,0-.94-.32,3.2,3.2,0,0,0-1.07.2,3.68,3.68,0,0,0-1,.57,3.93,3.93,0,0,0-.8.83l-.36-1.43h.69v7.64H69.78V4.89h2.06l.57,2-.89,0a6.68,6.68,0,0,1,1.25-1.12A6.12,6.12,0,0,1,74.28,5,4.94,4.94,0,0,1,76,4.66Z"/><path class="cls-1" d="M81.39.86h2.73v14.3H81.39ZM83.33,10V9.64l4.28-4.75h3.13L86,10.23l-.12-1.12,5,6.05H87.59Z"/></g></g></svg>