<?xml version="1.0" encoding="utf-8"?>
<!-- Generator: Adobe Illustrator 25.3.1, SVG Export Plug-In . SVG Version: 6.00 Build 0)  -->
<svg version="1.1" id="Layer_1" xmlns="http://www.w3.org/2000/svg" xmlns:xlink="http://www.w3.org/1999/xlink" x="0px" y="0px"
	 viewBox="0 0 512 512" style="enable-background:new 0 0 512 512;" xml:space="preserve">
<style type="text/css">
	.st0{fill:#0000FF;}
</style>
<path class="st0" d="M80,90h352c26.5,0,48,21.5,48,48v0c0,26.5-21.5,48-48,48H80c-26.5,0-48-21.5-48-48v0C32,111.5,53.5,90,80,90z
	 M80,218h352c26.5,0,48,21.5,48,48v0c0,26.5-21.5,48-48,48H80c-26.5,0-48-21.5-48-48v0C32,239.5,53.5,218,80,218z M80,346h352
	c26.5,0,48,21.5,48,48v0c0,26.5-21.5,48-48,48H80c-26.5,0-48-21.5-48-48v0C32,367.5,53.5,346,80,346z"/>
</svg>
